<svg version="1.1" xmlns="http://www.w3.org/2000/svg" xmlns:xlink="http://www.w3.org/1999/xlink" width="559.21240234375" height="541"><defs/><g><g transform="translate(-46,-30) scale(1,1)"><rect fill="#C0C0C0" stroke="none" x="79" y="247" width="221.3466796875" height="105" opacity="0.2"/></g><g transform="translate(-46,-30) scale(1,1)"><rect fill="#ffffff" stroke="none" x="72" y="240" width="221.3466796875" height="105"/></g><g transform="translate(-46,-30) scale(1,1)"><path fill="none" stroke="#000000" d="M 72 240 L 293.3466796875 240 L 293.3466796875 345 L 72 345 L 72 240 Z Z" stroke-miterlimit="10"/></g><g transform="translate(-46,-30) scale(1,1)"><path fill="none" stroke="#000000" d="M 72 263 L 293.3466796875 263" stroke-miterlimit="10"/></g><g transform="translate(-46,-30) scale(1,1)"><path fill="none" stroke="#000000" d="M 100.05908203125 263 L 100.05908203125 345" stroke-miterlimit="10"/></g><g transform="translate(-46,-30) scale(1,1)"><path fill="none" stroke="#000000" d="M 195.75244140625 263 L 195.75244140625 345" stroke-miterlimit="10"/></g><g transform="translate(-46,-30) scale(1,1)"><g><path fill="none" stroke="none"/><text fill="#000000" stroke="none" font-family="Arial" font-size="13px" font-style="normal" font-weight="bold" text-decoration="none" x="125.01123046875" y="256">TBL_CUSTOMERS</text></g></g><g transform="translate(-46,-30) scale(1,1)"><g><path fill="none" stroke="none"/><text fill="#000000" stroke="none" font-family="Arial" font-size="13px" font-style="normal" font-weight="normal" text-decoration="none" x="77" y="278">PK</text></g></g><g transform="translate(-46,-30) scale(1,1)"><g><path fill="none" stroke="none"/><text fill="#000000" stroke="none" font-family="Arial" font-size="13px" font-style="normal" font-weight="normal" text-decoration="none" x="105.05908203125" y="278">ID</text></g></g><g transform="translate(-46,-30) scale(1,1)"><g><path fill="none" stroke="none"/><text fill="#000000" stroke="none" font-family="Arial" font-size="13px" font-style="normal" font-weight="normal" text-decoration="none" x="200.75244140625" y="278">BIGINT</text></g></g><g transform="translate(-46,-30) scale(1,1)"><g><path fill="none" stroke="none"/><text fill="#000000" stroke="none" font-family="Arial" font-size="13px" font-style="normal" font-weight="normal" text-decoration="none" x="77" y="274"></text></g></g><g transform="translate(-46,-30) scale(1,1)"><g><path fill="none" stroke="none"/><text fill="#000000" stroke="none" font-family="Arial" font-size="13px" font-style="normal" font-weight="normal" text-decoration="none" x="77" y="283"></text></g></g><g transform="translate(-46,-30) scale(1,1)"><g><path fill="none" stroke="none"/><text fill="#000000" stroke="none" font-family="Arial" font-size="13px" font-style="normal" font-weight="normal" text-decoration="none" x="105.05908203125" y="293">FULLNAME</text></g></g><g transform="translate(-46,-30) scale(1,1)"><g><path fill="none" stroke="none"/><text fill="#000000" stroke="none" font-family="Arial" font-size="13px" font-style="normal" font-weight="normal" text-decoration="none" x="200.75244140625" y="293">VARCHAR(64)</text></g></g><g transform="translate(-46,-30) scale(1,1)"><g><path fill="none" stroke="none"/><text fill="#000000" stroke="none" font-family="Arial" font-size="13px" font-style="normal" font-weight="normal" text-decoration="none" x="77" y="289"></text></g></g><g transform="translate(-46,-30) scale(1,1)"><g><path fill="none" stroke="none"/><text fill="#000000" stroke="none" font-family="Arial" font-size="13px" font-style="normal" font-weight="normal" text-decoration="none" x="77" y="308">U</text></g></g><g transform="translate(-46,-30) scale(1,1)"><g><path fill="none" stroke="none"/><text fill="#000000" stroke="none" font-family="Arial" font-size="13px" font-style="normal" font-weight="normal" text-decoration="none" x="105.05908203125" y="308">CNPJ</text></g></g><g transform="translate(-46,-30) scale(1,1)"><g><path fill="none" stroke="none"/><text fill="#000000" stroke="none" font-family="Arial" font-size="13px" font-style="normal" font-weight="normal" text-decoration="none" x="200.75244140625" y="308">VARCHAR(14)</text></g></g><g transform="translate(-46,-30) scale(1,1)"><g><path fill="none" stroke="none"/><text fill="#000000" stroke="none" font-family="Arial" font-size="13px" font-style="normal" font-weight="normal" text-decoration="none" x="77" y="304"></text></g></g><g transform="translate(-46,-30) scale(1,1)"><g><path fill="none" stroke="none"/><text fill="#000000" stroke="none" font-family="Arial" font-size="13px" font-style="normal" font-weight="normal" text-decoration="none" x="77" y="313"></text></g></g><g transform="translate(-46,-30) scale(1,1)"><g><path fill="none" stroke="none"/><text fill="#000000" stroke="none" font-family="Arial" font-size="13px" font-style="normal" font-weight="normal" text-decoration="none" x="105.05908203125" y="323">FOUNDATION</text></g></g><g transform="translate(-46,-30) scale(1,1)"><g><path fill="none" stroke="none"/><text fill="#000000" stroke="none" font-family="Arial" font-size="13px" font-style="normal" font-weight="normal" text-decoration="none" x="200.75244140625" y="323">DATE</text></g></g><g transform="translate(-46,-30) scale(1,1)"><g><path fill="none" stroke="none"/><text fill="#000000" stroke="none" font-family="Arial" font-size="13px" font-style="normal" font-weight="normal" text-decoration="none" x="77" y="319"></text></g></g><g transform="translate(-46,-30) scale(1,1)"><g><path fill="none" stroke="none"/><text fill="#000000" stroke="none" font-family="Arial" font-size="13px" font-style="normal" font-weight="normal" text-decoration="none" x="77" y="328"></text></g></g><g transform="translate(-46,-30) scale(1,1)"><g><path fill="none" stroke="none"/><text fill="#000000" stroke="none" font-family="Arial" font-size="13px" font-style="normal" font-weight="normal" text-decoration="none" x="105.05908203125" y="338">REGISTERED</text></g></g><g transform="translate(-46,-30) scale(1,1)"><g><path fill="none" stroke="none"/><text fill="#000000" stroke="none" font-family="Arial" font-size="13px" font-style="normal" font-weight="normal" text-decoration="none" x="200.75244140625" y="338">DATE</text></g></g><g transform="translate(-46,-30) scale(1,1)"><g><path fill="none" stroke="none"/><text fill="#000000" stroke="none" font-family="Arial" font-size="13px" font-style="normal" font-weight="normal" text-decoration="none" x="77" y="334"></text></g></g><g transform="translate(-46,-30) scale(1,1)"><rect fill="#C0C0C0" stroke="none" x="351" y="47" width="251.21240234375" height="165" opacity="0.2"/></g><g transform="translate(-46,-30) scale(1,1)"><rect fill="#ffffff" stroke="none" x="344" y="40" width="251.21240234375" height="165"/></g><g transform="translate(-46,-30) scale(1,1)"><path fill="none" stroke="#000000" d="M 344 40 L 595.21240234375 40 L 595.21240234375 205 L 344 205 L 344 40 Z Z" stroke-miterlimit="10"/></g><g transform="translate(-46,-30) scale(1,1)"><path fill="none" stroke="#000000" d="M 344 63 L 595.21240234375 63" stroke-miterlimit="10"/></g><g transform="translate(-46,-30) scale(1,1)"><path fill="none" stroke="#000000" d="M 372.05908203125 63 L 372.05908203125 205" stroke-miterlimit="10"/></g><g transform="translate(-46,-30) scale(1,1)"><path fill="none" stroke="#000000" d="M 491.1181640625 63 L 491.1181640625 205" stroke-miterlimit="10"/></g><g transform="translate(-46,-30) scale(1,1)"><g><path fill="none" stroke="none"/><text fill="#000000" stroke="none" font-family="Arial" font-size="13px" font-style="normal" font-weight="bold" text-decoration="none" x="412.902587890625" y="56">TBL_ADDRESSES</text></g></g><g transform="translate(-46,-30) scale(1,1)"><g><path fill="none" stroke="none"/><text fill="#000000" stroke="none" font-family="Arial" font-size="13px" font-style="normal" font-weight="normal" text-decoration="none" x="349" y="78">PK</text></g></g><g transform="translate(-46,-30) scale(1,1)"><g><path fill="none" stroke="none"/><text fill="#000000" stroke="none" font-family="Arial" font-size="13px" font-style="normal" font-weight="normal" text-decoration="none" x="377.05908203125" y="78">ID</text></g></g><g transform="translate(-46,-30) scale(1,1)"><g><path fill="none" stroke="none"/><text fill="#000000" stroke="none" font-family="Arial" font-size="13px" font-style="normal" font-weight="normal" text-decoration="none" x="496.1181640625" y="78">BIGINT</text></g></g><g transform="translate(-46,-30) scale(1,1)"><g><path fill="none" stroke="none"/><text fill="#000000" stroke="none" font-family="Arial" font-size="13px" font-style="normal" font-weight="normal" text-decoration="none" x="349" y="74"></text></g></g><g transform="translate(-46,-30) scale(1,1)"><g><path fill="none" stroke="none"/><text fill="#000000" stroke="none" font-family="Arial" font-size="13px" font-style="normal" font-weight="normal" text-decoration="none" x="349" y="83"></text></g></g><g transform="translate(-46,-30) scale(1,1)"><g><path fill="none" stroke="none"/><text fill="#000000" stroke="none" font-family="Arial" font-size="13px" font-style="normal" font-weight="normal" text-decoration="none" x="377.05908203125" y="93">PUBLIC_PLACE</text></g></g><g transform="translate(-46,-30) scale(1,1)"><g><path fill="none" stroke="none"/><text fill="#000000" stroke="none" font-family="Arial" font-size="13px" font-style="normal" font-weight="normal" text-decoration="none" x="496.1181640625" y="93">VARCHAR(128)</text></g></g><g transform="translate(-46,-30) scale(1,1)"><g><path fill="none" stroke="none"/><text fill="#000000" stroke="none" font-family="Arial" font-size="13px" font-style="normal" font-weight="normal" text-decoration="none" x="349" y="89"></text></g></g><g transform="translate(-46,-30) scale(1,1)"><g><path fill="none" stroke="none"/><text fill="#000000" stroke="none" font-family="Arial" font-size="13px" font-style="normal" font-weight="normal" text-decoration="none" x="349" y="98"></text></g></g><g transform="translate(-46,-30) scale(1,1)"><g><path fill="none" stroke="none"/><text fill="#000000" stroke="none" font-family="Arial" font-size="13px" font-style="normal" font-weight="normal" text-decoration="none" x="377.05908203125" y="108">NUMBER</text></g></g><g transform="translate(-46,-30) scale(1,1)"><g><path fill="none" stroke="none"/><text fill="#000000" stroke="none" font-family="Arial" font-size="13px" font-style="normal" font-weight="normal" text-decoration="none" x="496.1181640625" y="108">INTEGER(6)</text></g></g><g transform="translate(-46,-30) scale(1,1)"><g><path fill="none" stroke="none"/><text fill="#000000" stroke="none" font-family="Arial" font-size="13px" font-style="normal" font-weight="normal" text-decoration="none" x="349" y="104"></text></g></g><g transform="translate(-46,-30) scale(1,1)"><g><path fill="none" stroke="none"/><text fill="#000000" stroke="none" font-family="Arial" font-size="13px" font-style="normal" font-weight="normal" text-decoration="none" x="349" y="113"></text></g></g><g transform="translate(-46,-30) scale(1,1)"><g><path fill="none" stroke="none"/><text fill="#000000" stroke="none" font-family="Arial" font-size="13px" font-style="normal" font-weight="normal" text-decoration="none" x="377.05908203125" y="123">COMPLEMENT</text></g></g><g transform="translate(-46,-30) scale(1,1)"><g><path fill="none" stroke="none"/><text fill="#000000" stroke="none" font-family="Arial" font-size="13px" font-style="normal" font-weight="normal" text-decoration="none" x="496.1181640625" y="123">VARCHAR(32)</text></g></g><g transform="translate(-46,-30) scale(1,1)"><g><path fill="none" stroke="none"/><text fill="#000000" stroke="none" font-family="Arial" font-size="13px" font-style="normal" font-weight="normal" text-decoration="none" x="349" y="119"></text></g></g><g transform="translate(-46,-30) scale(1,1)"><g><path fill="none" stroke="none"/><text fill="#000000" stroke="none" font-family="Arial" font-size="13px" font-style="normal" font-weight="normal" text-decoration="none" x="349" y="128"></text></g></g><g transform="translate(-46,-30) scale(1,1)"><g><path fill="none" stroke="none"/><text fill="#000000" stroke="none" font-family="Arial" font-size="13px" font-style="normal" font-weight="normal" text-decoration="none" x="377.05908203125" y="138">NEIGHBORHOOD</text></g></g><g transform="translate(-46,-30) scale(1,1)"><g><path fill="none" stroke="none"/><text fill="#000000" stroke="none" font-family="Arial" font-size="13px" font-style="normal" font-weight="normal" text-decoration="none" x="496.1181640625" y="138">VARCHAR(128)</text></g></g><g transform="translate(-46,-30) scale(1,1)"><g><path fill="none" stroke="none"/><text fill="#000000" stroke="none" font-family="Arial" font-size="13px" font-style="normal" font-weight="normal" text-decoration="none" x="349" y="134"></text></g></g><g transform="translate(-46,-30) scale(1,1)"><g><path fill="none" stroke="none"/><text fill="#000000" stroke="none" font-family="Arial" font-size="13px" font-style="normal" font-weight="normal" text-decoration="none" x="349" y="143"></text></g></g><g transform="translate(-46,-30) scale(1,1)"><g><path fill="none" stroke="none"/><text fill="#000000" stroke="none" font-family="Arial" font-size="13px" font-style="normal" font-weight="normal" text-decoration="none" x="377.05908203125" y="153">CITY</text></g></g><g transform="translate(-46,-30) scale(1,1)"><g><path fill="none" stroke="none"/><text fill="#000000" stroke="none" font-family="Arial" font-size="13px" font-style="normal" font-weight="normal" text-decoration="none" x="496.1181640625" y="153">VARCHAR(32)</text></g></g><g transform="translate(-46,-30) scale(1,1)"><g><path fill="none" stroke="none"/><text fill="#000000" stroke="none" font-family="Arial" font-size="13px" font-style="normal" font-weight="normal" text-decoration="none" x="349" y="149"></text></g></g><g transform="translate(-46,-30) scale(1,1)"><g><path fill="none" stroke="none"/><text fill="#000000" stroke="none" font-family="Arial" font-size="13px" font-style="normal" font-weight="normal" text-decoration="none" x="349" y="158"></text></g></g><g transform="translate(-46,-30) scale(1,1)"><g><path fill="none" stroke="none"/><text fill="#000000" stroke="none" font-family="Arial" font-size="13px" font-style="normal" font-weight="normal" text-decoration="none" x="377.05908203125" y="168">STATE</text></g></g><g transform="translate(-46,-30) scale(1,1)"><g><path fill="none" stroke="none"/><text fill="#000000" stroke="none" font-family="Arial" font-size="13px" font-style="normal" font-weight="normal" text-decoration="none" x="496.1181640625" y="168">VARCHAR(2)</text></g></g><g transform="translate(-46,-30) scale(1,1)"><g><path fill="none" stroke="none"/><text fill="#000000" stroke="none" font-family="Arial" font-size="13px" font-style="normal" font-weight="normal" text-decoration="none" x="349" y="164"></text></g></g><g transform="translate(-46,-30) scale(1,1)"><g><path fill="none" stroke="none"/><text fill="#000000" stroke="none" font-family="Arial" font-size="13px" font-style="normal" font-weight="normal" text-decoration="none" x="349" y="173"></text></g></g><g transform="translate(-46,-30) scale(1,1)"><g><path fill="none" stroke="none"/><text fill="#000000" stroke="none" font-family="Arial" font-size="13px" font-style="normal" font-weight="normal" text-decoration="none" x="377.05908203125" y="183">ZIP_CODE</text></g></g><g transform="translate(-46,-30) scale(1,1)"><g><path fill="none" stroke="none"/><text fill="#000000" stroke="none" font-family="Arial" font-size="13px" font-style="normal" font-weight="normal" text-decoration="none" x="496.1181640625" y="183">VARCHAR(14)</text></g></g><g transform="translate(-46,-30) scale(1,1)"><g><path fill="none" stroke="none"/><text fill="#000000" stroke="none" font-family="Arial" font-size="13px" font-style="normal" font-weight="normal" text-decoration="none" x="349" y="179"></text></g></g><g transform="translate(-46,-30) scale(1,1)"><g><path fill="none" stroke="none"/><text fill="#000000" stroke="none" font-family="Arial" font-size="13px" font-style="normal" font-weight="normal" text-decoration="none" x="349" y="198">FK</text></g></g><g transform="translate(-46,-30) scale(1,1)"><g><path fill="none" stroke="none"/><text fill="#000000" stroke="none" font-family="Arial" font-size="13px" font-style="normal" font-weight="normal" text-decoration="none" x="377.05908203125" y="198">CUSTOMER_ID</text></g></g><g transform="translate(-46,-30) scale(1,1)"><g><path fill="none" stroke="none"/><text fill="#000000" stroke="none" font-family="Arial" font-size="13px" font-style="normal" font-weight="normal" text-decoration="none" x="496.1181640625" y="198">BIGINT</text></g></g><g transform="translate(-46,-30) scale(1,1)"><g><path fill="none" stroke="none"/><text fill="#000000" stroke="none" font-family="Arial" font-size="13px" font-style="normal" font-weight="normal" text-decoration="none" x="349" y="194"></text></g></g><g transform="translate(-46,-30) scale(1,1)"><rect fill="#C0C0C0" stroke="none" x="63" y="55" width="229.306640625" height="90" opacity="0.2"/></g><g transform="translate(-46,-30) scale(1,1)"><rect fill="#ffffff" stroke="none" x="56" y="48" width="229.306640625" height="90"/></g><g transform="translate(-46,-30) scale(1,1)"><path fill="none" stroke="#000000" d="M 56 48 L 285.306640625 48 L 285.306640625 138 L 56 138 L 56 48 Z Z" stroke-miterlimit="10"/></g><g transform="translate(-46,-30) scale(1,1)"><path fill="none" stroke="#000000" d="M 56 71 L 285.306640625 71" stroke-miterlimit="10"/></g><g transform="translate(-46,-30) scale(1,1)"><path fill="none" stroke="#000000" d="M 84.05908203125 71 L 84.05908203125 138" stroke-miterlimit="10"/></g><g transform="translate(-46,-30) scale(1,1)"><path fill="none" stroke="#000000" d="M 188.4423828125 71 L 188.4423828125 138" stroke-miterlimit="10"/></g><g transform="translate(-46,-30) scale(1,1)"><g><path fill="none" stroke="none"/><text fill="#000000" stroke="none" font-family="Arial" font-size="13px" font-style="normal" font-weight="bold" text-decoration="none" x="118.777099609375" y="64">TBL_CONTACTS</text></g></g><g transform="translate(-46,-30) scale(1,1)"><g><path fill="none" stroke="none"/><text fill="#000000" stroke="none" font-family="Arial" font-size="13px" font-style="normal" font-weight="normal" text-decoration="none" x="61" y="86">PK</text></g></g><g transform="translate(-46,-30) scale(1,1)"><g><path fill="none" stroke="none"/><text fill="#000000" stroke="none" font-family="Arial" font-size="13px" font-style="normal" font-weight="normal" text-decoration="none" x="89.05908203125" y="86">ID</text></g></g><g transform="translate(-46,-30) scale(1,1)"><g><path fill="none" stroke="none"/><text fill="#000000" stroke="none" font-family="Arial" font-size="13px" font-style="normal" font-weight="normal" text-decoration="none" x="193.4423828125" y="86">BIGINT</text></g></g><g transform="translate(-46,-30) scale(1,1)"><g><path fill="none" stroke="none"/><text fill="#000000" stroke="none" font-family="Arial" font-size="13px" font-style="normal" font-weight="normal" text-decoration="none" x="61" y="82"></text></g></g><g transform="translate(-46,-30) scale(1,1)"><g><path fill="none" stroke="none"/><text fill="#000000" stroke="none" font-family="Arial" font-size="13px" font-style="normal" font-weight="normal" text-decoration="none" x="61" y="91"></text></g></g><g transform="translate(-46,-30) scale(1,1)"><g><path fill="none" stroke="none"/><text fill="#000000" stroke="none" font-family="Arial" font-size="13px" font-style="normal" font-weight="normal" text-decoration="none" x="89.05908203125" y="101">TYPE</text></g></g><g transform="translate(-46,-30) scale(1,1)"><g><path fill="none" stroke="none"/><text fill="#000000" stroke="none" font-family="Arial" font-size="13px" font-style="normal" font-weight="normal" text-decoration="none" x="193.4423828125" y="101">VARCHAR(32)</text></g></g><g transform="translate(-46,-30) scale(1,1)"><g><path fill="none" stroke="none"/><text fill="#000000" stroke="none" font-family="Arial" font-size="13px" font-style="normal" font-weight="normal" text-decoration="none" x="61" y="97"></text></g></g><g transform="translate(-46,-30) scale(1,1)"><g><path fill="none" stroke="none"/><text fill="#000000" stroke="none" font-family="Arial" font-size="13px" font-style="normal" font-weight="normal" text-decoration="none" x="61" y="116">U</text></g></g><g transform="translate(-46,-30) scale(1,1)"><g><path fill="none" stroke="none"/><text fill="#000000" stroke="none" font-family="Arial" font-size="13px" font-style="normal" font-weight="normal" text-decoration="none" x="89.05908203125" y="116">CONTACT</text></g></g><g transform="translate(-46,-30) scale(1,1)"><g><path fill="none" stroke="none"/><text fill="#000000" stroke="none" font-family="Arial" font-size="13px" font-style="normal" font-weight="normal" text-decoration="none" x="193.4423828125" y="116">VARCHAR</text></g></g><g transform="translate(-46,-30) scale(1,1)"><g><path fill="none" stroke="none"/><text fill="#000000" stroke="none" font-family="Arial" font-size="13px" font-style="normal" font-weight="normal" text-decoration="none" x="61" y="112"></text></g></g><g transform="translate(-46,-30) scale(1,1)"><g><path fill="none" stroke="none"/><text fill="#000000" stroke="none" font-family="Arial" font-size="13px" font-style="normal" font-weight="normal" text-decoration="none" x="61" y="131">FK</text></g></g><g transform="translate(-46,-30) scale(1,1)"><g><path fill="none" stroke="none"/><text fill="#000000" stroke="none" font-family="Arial" font-size="13px" font-style="normal" font-weight="normal" text-decoration="none" x="89.05908203125" y="131">CUSTOMER_ID</text></g></g><g transform="translate(-46,-30) scale(1,1)"><g><path fill="none" stroke="none"/><text fill="#000000" stroke="none" font-family="Arial" font-size="13px" font-style="normal" font-weight="normal" text-decoration="none" x="193.4423828125" y="131">BIGINT</text></g></g><g transform="translate(-46,-30) scale(1,1)"><g><path fill="none" stroke="none"/><text fill="#000000" stroke="none" font-family="Arial" font-size="13px" font-style="normal" font-weight="normal" text-decoration="none" x="61" y="127"></text></g></g><g transform="translate(-46,-30) scale(1,1)"><rect fill="#C0C0C0" stroke="none" x="63" y="463" width="233.62939453125" height="105" opacity="0.2"/></g><g transform="translate(-46,-30) scale(1,1)"><rect fill="#ffffff" stroke="none" x="56" y="456" width="233.62939453125" height="105"/></g><g transform="translate(-46,-30) scale(1,1)"><path fill="none" stroke="#000000" d="M 56 456 L 289.62939453125 456 L 289.62939453125 561 L 56 561 L 56 456 Z Z" stroke-miterlimit="10"/></g><g transform="translate(-46,-30) scale(1,1)"><path fill="none" stroke="#000000" d="M 56 479 L 289.62939453125 479" stroke-miterlimit="10"/></g><g transform="translate(-46,-30) scale(1,1)"><path fill="none" stroke="#000000" d="M 84.05908203125 479 L 84.05908203125 561" stroke-miterlimit="10"/></g><g transform="translate(-46,-30) scale(1,1)"><path fill="none" stroke="#000000" d="M 185.5478515625 479 L 185.5478515625 561" stroke-miterlimit="10"/></g><g transform="translate(-46,-30) scale(1,1)"><g><path fill="none" stroke="none"/><text fill="#000000" stroke="none" font-family="Arial" font-size="13px" font-style="normal" font-weight="bold" text-decoration="none" x="128.39697265625" y="472">TBL_AGENDA</text></g></g><g transform="translate(-46,-30) scale(1,1)"><g><path fill="none" stroke="none"/><text fill="#000000" stroke="none" font-family="Arial" font-size="13px" font-style="normal" font-weight="normal" text-decoration="none" x="61" y="494">PK</text></g></g><g transform="translate(-46,-30) scale(1,1)"><g><path fill="none" stroke="none"/><text fill="#000000" stroke="none" font-family="Arial" font-size="13px" font-style="normal" font-weight="normal" text-decoration="none" x="89.05908203125" y="494">ID</text></g></g><g transform="translate(-46,-30) scale(1,1)"><g><path fill="none" stroke="none"/><text fill="#000000" stroke="none" font-family="Arial" font-size="13px" font-style="normal" font-weight="normal" text-decoration="none" x="190.5478515625" y="494">BIGINT</text></g></g><g transform="translate(-46,-30) scale(1,1)"><g><path fill="none" stroke="none"/><text fill="#000000" stroke="none" font-family="Arial" font-size="13px" font-style="normal" font-weight="normal" text-decoration="none" x="61" y="490"></text></g></g><g transform="translate(-46,-30) scale(1,1)"><g><path fill="none" stroke="none"/><text fill="#000000" stroke="none" font-family="Arial" font-size="13px" font-style="normal" font-weight="normal" text-decoration="none" x="61" y="499"></text></g></g><g transform="translate(-46,-30) scale(1,1)"><g><path fill="none" stroke="none"/><text fill="#000000" stroke="none" font-family="Arial" font-size="13px" font-style="normal" font-weight="normal" text-decoration="none" x="89.05908203125" y="509">TITLE</text></g></g><g transform="translate(-46,-30) scale(1,1)"><g><path fill="none" stroke="none"/><text fill="#000000" stroke="none" font-family="Arial" font-size="13px" font-style="normal" font-weight="normal" text-decoration="none" x="190.5478515625" y="509">VARCHAR(128)</text></g></g><g transform="translate(-46,-30) scale(1,1)"><g><path fill="none" stroke="none"/><text fill="#000000" stroke="none" font-family="Arial" font-size="13px" font-style="normal" font-weight="normal" text-decoration="none" x="61" y="505"></text></g></g><g transform="translate(-46,-30) scale(1,1)"><g><path fill="none" stroke="none"/><text fill="#000000" stroke="none" font-family="Arial" font-size="13px" font-style="normal" font-weight="normal" text-decoration="none" x="61" y="514"></text></g></g><g transform="translate(-46,-30) scale(1,1)"><g><path fill="none" stroke="none"/><text fill="#000000" stroke="none" font-family="Arial" font-size="13px" font-style="normal" font-weight="normal" text-decoration="none" x="89.05908203125" y="524">DESCRIPTION</text></g></g><g transform="translate(-46,-30) scale(1,1)"><g><path fill="none" stroke="none"/><text fill="#000000" stroke="none" font-family="Arial" font-size="13px" font-style="normal" font-weight="normal" text-decoration="none" x="190.5478515625" y="524">VARCHAR(255)</text></g></g><g transform="translate(-46,-30) scale(1,1)"><g><path fill="none" stroke="none"/><text fill="#000000" stroke="none" font-family="Arial" font-size="13px" font-style="normal" font-weight="normal" text-decoration="none" x="61" y="520"></text></g></g><g transform="translate(-46,-30) scale(1,1)"><g><path fill="none" stroke="none"/><text fill="#000000" stroke="none" font-family="Arial" font-size="13px" font-style="normal" font-weight="normal" text-decoration="none" x="61" y="529"></text></g></g><g transform="translate(-46,-30) scale(1,1)"><g><path fill="none" stroke="none"/><text fill="#000000" stroke="none" font-family="Arial" font-size="13px" font-style="normal" font-weight="normal" text-decoration="none" x="89.05908203125" y="539">MARCKED_TO</text></g></g><g transform="translate(-46,-30) scale(1,1)"><g><path fill="none" stroke="none"/><text fill="#000000" stroke="none" font-family="Arial" font-size="13px" font-style="normal" font-weight="normal" text-decoration="none" x="190.5478515625" y="539">DATE</text></g></g><g transform="translate(-46,-30) scale(1,1)"><g><path fill="none" stroke="none"/><text fill="#000000" stroke="none" font-family="Arial" font-size="13px" font-style="normal" font-weight="normal" text-decoration="none" x="61" y="535"></text></g></g><g transform="translate(-46,-30) scale(1,1)"><g><path fill="none" stroke="none"/><text fill="#000000" stroke="none" font-family="Arial" font-size="13px" font-style="normal" font-weight="normal" text-decoration="none" x="61" y="544"></text></g></g><g transform="translate(-46,-30) scale(1,1)"><g><path fill="none" stroke="none"/><text fill="#000000" stroke="none" font-family="Arial" font-size="13px" font-style="normal" font-weight="normal" text-decoration="none" x="89.05908203125" y="554">CONCLUDED</text></g></g><g transform="translate(-46,-30) scale(1,1)"><g><path fill="none" stroke="none"/><text fill="#000000" stroke="none" font-family="Arial" font-size="13px" font-style="normal" font-weight="normal" text-decoration="none" x="190.5478515625" y="554">BOOLEAN</text></g></g><g transform="translate(-46,-30) scale(1,1)"><g><path fill="none" stroke="none"/><text fill="#000000" stroke="none" font-family="Arial" font-size="13px" font-style="normal" font-weight="normal" text-decoration="none" x="61" y="550"></text></g></g><g transform="translate(-46,-30) scale(1,1)"><path fill="none" stroke="#000000" d="M 293 296 L 448 296 M 448 296 A 8 8 0 0 0 456 288 L 456 205" stroke-miterlimit="10"/></g><g transform="translate(-46,-30) scale(1,1)"><path fill="none" stroke="#000000" d="M 456 219 L 463 205" stroke-miterlimit="10"/></g><g transform="translate(-46,-30) scale(1,1)"><path fill="none" stroke="#000000" d="M 456 219 L 449 205" stroke-miterlimit="10"/></g><g transform="translate(-46,-30) scale(1,1)"><path fill="#FFFFFF" stroke="none" d="M 449 227 C 449 223.1340064 452.1340064 220 456 220 C 459.8659936 220 463 223.1340064 463 227 C 463 230.8659936 459.8659936 234 456 234 C 452.1340064 234 449 230.8659936 449 227 Z"/></g><g transform="translate(-46,-30) scale(1,1)"><path fill="none" stroke="#000000" d="M 449 227 C 449 223.1340064 452.1340064 220 456 220 C 459.8659936 220 463 223.1340064 463 227 C 463 230.8659936 459.8659936 234 456 234 C 452.1340064 234 449 230.8659936 449 227 Z" stroke-miterlimit="10"/></g><g transform="translate(-46,-30) scale(1,1)"><path fill="none" stroke="#000000" d="M 300 289 L 300 303" stroke-miterlimit="10"/></g><g transform="translate(-46,-30) scale(1,1)"><path fill="none" stroke="#000000" d="M 307 289 L 307 303" stroke-miterlimit="10"/></g><g transform="translate(-46,-30) scale(1,1)"><g><path fill="none" stroke="none"/><text fill="#000000" stroke="none" font-family="Arial" font-size="13px" font-style="normal" font-weight="normal" text-decoration="none" x="317.5" y="281"></text></g></g><g transform="translate(-46,-30) scale(1,1)"><g><path fill="none" stroke="none"/><text fill="#000000" stroke="none" font-family="Arial" font-size="13px" font-style="normal" font-weight="normal" text-decoration="none" x="440.5" y="230"></text></g></g><g transform="translate(-46,-30) scale(1,1)"><path fill="none" stroke="#000000" d="M 176 138 L 176 240" stroke-miterlimit="10"/></g><g transform="translate(-46,-30) scale(1,1)"><path fill="none" stroke="#000000" d="M 169 233 L 183 233" stroke-miterlimit="10"/></g><g transform="translate(-46,-30) scale(1,1)"><path fill="none" stroke="#000000" d="M 169 226 L 183 226" stroke-miterlimit="10"/></g><g transform="translate(-46,-30) scale(1,1)"><path fill="none" stroke="#000000" d="M 176 152 L 183 138" stroke-miterlimit="10"/></g><g transform="translate(-46,-30) scale(1,1)"><path fill="none" stroke="#000000" d="M 176 152 L 169 138" stroke-miterlimit="10"/></g><g transform="translate(-46,-30) scale(1,1)"><path fill="#FFFFFF" stroke="none" d="M 169 160 C 169 156.1340064 172.1340064 153 176 153 C 179.8659936 153 183 156.1340064 183 160 C 183 163.8659936 179.8659936 167 176 167 C 172.1340064 167 169 163.8659936 169 160 Z"/></g><g transform="translate(-46,-30) scale(1,1)"><path fill="none" stroke="#000000" d="M 169 160 C 169 156.1340064 172.1340064 153 176 153 C 179.8659936 153 183 156.1340064 183 160 C 183 163.8659936 179.8659936 167 176 167 C 172.1340064 167 169 163.8659936 169 160 Z" stroke-miterlimit="10"/></g><g transform="translate(-46,-30) scale(1,1)"><g><path fill="none" stroke="none"/><text fill="#000000" stroke="none" font-family="Arial" font-size="13px" font-style="normal" font-weight="normal" text-decoration="none" x="190.5" y="163"></text></g></g><g transform="translate(-46,-30) scale(1,1)"><g><path fill="none" stroke="none"/><text fill="#000000" stroke="none" font-family="Arial" font-size="13px" font-style="normal" font-weight="normal" text-decoration="none" x="190.5" y="214"></text></g></g><g transform="translate(-46,-30) scale(1,1)"><path fill="none" stroke="#000000" d="M 176 345 L 176 456" stroke-miterlimit="10"/></g><g transform="translate(-46,-30) scale(1,1)"><path fill="none" stroke="#000000" d="M 176 442 L 169 456" stroke-miterlimit="10"/></g><g transform="translate(-46,-30) scale(1,1)"><path fill="none" stroke="#000000" d="M 176 442 L 183 456" stroke-miterlimit="10"/></g><g transform="translate(-46,-30) scale(1,1)"><path fill="#FFFFFF" stroke="none" d="M 169 434 C 169 430.1340064 172.1340064 427 176 427 C 179.8659936 427 183 430.1340064 183 434 C 183 437.8659936 179.8659936 441 176 441 C 172.1340064 441 169 437.8659936 169 434 Z"/></g><g transform="translate(-46,-30) scale(1,1)"><path fill="none" stroke="#000000" d="M 169 434 C 169 430.1340064 172.1340064 427 176 427 C 179.8659936 427 183 430.1340064 183 434 C 183 437.8659936 179.8659936 441 176 441 C 172.1340064 441 169 437.8659936 169 434 Z" stroke-miterlimit="10"/></g><g transform="translate(-46,-30) scale(1,1)"><path fill="none" stroke="#000000" d="M 183 352 L 169 352" stroke-miterlimit="10"/></g><g transform="translate(-46,-30) scale(1,1)"><path fill="none" stroke="#000000" d="M 183 359 L 169 359" stroke-miterlimit="10"/></g><g transform="translate(-46,-30) scale(1,1)"><g><path fill="none" stroke="none"/><text fill="#000000" stroke="none" font-family="Arial" font-size="13px" font-style="normal" font-weight="normal" text-decoration="none" x="190.5" y="370"></text></g></g><g transform="translate(-46,-30) scale(1,1)"><g><path fill="none" stroke="none"/><text fill="#000000" stroke="none" font-family="Arial" font-size="13px" font-style="normal" font-weight="normal" text-decoration="none" x="190.5" y="430"></text></g></g></g></svg>