<svg version="1.1" xmlns="http://www.w3.org/2000/svg" xmlns:xlink="http://www.w3.org/1999/xlink" width="612.93115234375" height="493"><defs/><g><g transform="translate(-46,-30) scale(1,1)"><rect fill="#C0C0C0" stroke="none" x="79" y="247" width="219.90576171875" height="105" opacity="0.2"/></g><g transform="translate(-46,-30) scale(1,1)"><rect fill="#ffffff" stroke="none" x="72" y="240" width="219.90576171875" height="105"/></g><g transform="translate(-46,-30) scale(1,1)"><path fill="none" stroke="#000000" d="M 72 240 L 291.90576171875 240 L 291.90576171875 345 L 72 345 L 72 240 Z Z" stroke-miterlimit="10"/></g><g transform="translate(-46,-30) scale(1,1)"><path fill="none" stroke="#000000" d="M 72 263 L 291.90576171875 263" stroke-miterlimit="10"/></g><g transform="translate(-46,-30) scale(1,1)"><path fill="none" stroke="#000000" d="M 100.05908203125 263 L 100.05908203125 345" stroke-miterlimit="10"/></g><g transform="translate(-46,-30) scale(1,1)"><path fill="none" stroke="#000000" d="M 195.75244140625 263 L 195.75244140625 345" stroke-miterlimit="10"/></g><g transform="translate(-46,-30) scale(1,1)"><g><path fill="none" stroke="none"/><text fill="#000000" stroke="none" font-family="Arial" font-size="13px" font-style="normal" font-weight="bold" text-decoration="none" x="124.290771484375" y="256">TBL_CUSTOMERS</text></g></g><g transform="translate(-46,-30) scale(1,1)"><g><path fill="none" stroke="none"/><text fill="#000000" stroke="none" font-family="Arial" font-size="13px" font-style="normal" font-weight="normal" text-decoration="none" x="77" y="278">PK</text></g></g><g transform="translate(-46,-30) scale(1,1)"><g><path fill="none" stroke="none"/><text fill="#000000" stroke="none" font-family="Arial" font-size="13px" font-style="normal" font-weight="normal" text-decoration="none" x="105.05908203125" y="278">ID</text></g></g><g transform="translate(-46,-30) scale(1,1)"><g><path fill="none" stroke="none"/><text fill="#000000" stroke="none" font-family="Arial" font-size="13px" font-style="normal" font-weight="normal" text-decoration="none" x="200.75244140625" y="278">BIGINT</text></g></g><g transform="translate(-46,-30) scale(1,1)"><g><path fill="none" stroke="none"/><text fill="#000000" stroke="none" font-family="Arial" font-size="13px" font-style="normal" font-weight="normal" text-decoration="none" x="77" y="274"></text></g></g><g transform="translate(-46,-30) scale(1,1)"><g><path fill="none" stroke="none"/><text fill="#000000" stroke="none" font-family="Arial" font-size="13px" font-style="normal" font-weight="normal" text-decoration="none" x="77" y="283"></text></g></g><g transform="translate(-46,-30) scale(1,1)"><g><path fill="none" stroke="none"/><text fill="#000000" stroke="none" font-family="Arial" font-size="13px" font-style="normal" font-weight="normal" text-decoration="none" x="105.05908203125" y="293">FULLNAME</text></g></g><g transform="translate(-46,-30) scale(1,1)"><g><path fill="none" stroke="none"/><text fill="#000000" stroke="none" font-family="Arial" font-size="13px" font-style="normal" font-weight="normal" text-decoration="none" x="200.75244140625" y="293">VARCHAR(64)</text></g></g><g transform="translate(-46,-30) scale(1,1)"><g><path fill="none" stroke="none"/><text fill="#000000" stroke="none" font-family="Arial" font-size="13px" font-style="normal" font-weight="normal" text-decoration="none" x="77" y="289"></text></g></g><g transform="translate(-46,-30) scale(1,1)"><g><path fill="none" stroke="none"/><text fill="#000000" stroke="none" font-family="Arial" font-size="13px" font-style="normal" font-weight="normal" text-decoration="none" x="77" y="308">U</text></g></g><g transform="translate(-46,-30) scale(1,1)"><g><path fill="none" stroke="none"/><text fill="#000000" stroke="none" font-family="Arial" font-size="13px" font-style="normal" font-weight="normal" text-decoration="none" x="105.05908203125" y="308">CNPJ</text></g></g><g transform="translate(-46,-30) scale(1,1)"><g><path fill="none" stroke="none"/><text fill="#000000" stroke="none" font-family="Arial" font-size="13px" font-style="normal" font-weight="normal" text-decoration="none" x="200.75244140625" y="308">VARCHAR(14)</text></g></g><g transform="translate(-46,-30) scale(1,1)"><g><path fill="none" stroke="none"/><text fill="#000000" stroke="none" font-family="Arial" font-size="13px" font-style="normal" font-weight="normal" text-decoration="none" x="77" y="304"></text></g></g><g transform="translate(-46,-30) scale(1,1)"><g><path fill="none" stroke="none"/><text fill="#000000" stroke="none" font-family="Arial" font-size="13px" font-style="normal" font-weight="normal" text-decoration="none" x="77" y="313"></text></g></g><g transform="translate(-46,-30) scale(1,1)"><g><path fill="none" stroke="none"/><text fill="#000000" stroke="none" font-family="Arial" font-size="13px" font-style="normal" font-weight="normal" text-decoration="none" x="105.05908203125" y="323">FOUNDATION</text></g></g><g transform="translate(-46,-30) scale(1,1)"><g><path fill="none" stroke="none"/><text fill="#000000" stroke="none" font-family="Arial" font-size="13px" font-style="normal" font-weight="normal" text-decoration="none" x="200.75244140625" y="323">DATE</text></g></g><g transform="translate(-46,-30) scale(1,1)"><g><path fill="none" stroke="none"/><text fill="#000000" stroke="none" font-family="Arial" font-size="13px" font-style="normal" font-weight="normal" text-decoration="none" x="77" y="319"></text></g></g><g transform="translate(-46,-30) scale(1,1)"><g><path fill="none" stroke="none"/><text fill="#000000" stroke="none" font-family="Arial" font-size="13px" font-style="normal" font-weight="normal" text-decoration="none" x="77" y="328"></text></g></g><g transform="translate(-46,-30) scale(1,1)"><g><path fill="none" stroke="none"/><text fill="#000000" stroke="none" font-family="Arial" font-size="13px" font-style="normal" font-weight="normal" text-decoration="none" x="105.05908203125" y="338">REGISTERED</text></g></g><g transform="translate(-46,-30) scale(1,1)"><g><path fill="none" stroke="none"/><text fill="#000000" stroke="none" font-family="Arial" font-size="13px" font-style="normal" font-weight="normal" text-decoration="none" x="200.75244140625" y="338">DATE</text></g></g><g transform="translate(-46,-30) scale(1,1)"><g><path fill="none" stroke="none"/><text fill="#000000" stroke="none" font-family="Arial" font-size="13px" font-style="normal" font-weight="normal" text-decoration="none" x="77" y="334"></text></g></g><g transform="translate(-46,-30) scale(1,1)"><rect fill="#C0C0C0" stroke="none" x="351" y="47" width="250.50146484375" height="165" opacity="0.2"/></g><g transform="translate(-46,-30) scale(1,1)"><rect fill="#ffffff" stroke="none" x="344" y="40" width="250.50146484375" height="165"/></g><g transform="translate(-46,-30) scale(1,1)"><path fill="none" stroke="#000000" d="M 344 40 L 594.50146484375 40 L 594.50146484375 205 L 344 205 L 344 40 Z Z" stroke-miterlimit="10"/></g><g transform="translate(-46,-30) scale(1,1)"><path fill="none" stroke="#000000" d="M 344 63 L 594.50146484375 63" stroke-miterlimit="10"/></g><g transform="translate(-46,-30) scale(1,1)"><path fill="none" stroke="#000000" d="M 372.05908203125 63 L 372.05908203125 205" stroke-miterlimit="10"/></g><g transform="translate(-46,-30) scale(1,1)"><path fill="none" stroke="#000000" d="M 491.1181640625 63 L 491.1181640625 205" stroke-miterlimit="10"/></g><g transform="translate(-46,-30) scale(1,1)"><g><path fill="none" stroke="none"/><text fill="#000000" stroke="none" font-family="Arial" font-size="13px" font-style="normal" font-weight="bold" text-decoration="none" x="412.547119140625" y="56">TBL_ADDRESSES</text></g></g><g transform="translate(-46,-30) scale(1,1)"><g><path fill="none" stroke="none"/><text fill="#000000" stroke="none" font-family="Arial" font-size="13px" font-style="normal" font-weight="normal" text-decoration="none" x="349" y="78">PK</text></g></g><g transform="translate(-46,-30) scale(1,1)"><g><path fill="none" stroke="none"/><text fill="#000000" stroke="none" font-family="Arial" font-size="13px" font-style="normal" font-weight="normal" text-decoration="none" x="377.05908203125" y="78">ID</text></g></g><g transform="translate(-46,-30) scale(1,1)"><g><path fill="none" stroke="none"/><text fill="#000000" stroke="none" font-family="Arial" font-size="13px" font-style="normal" font-weight="normal" text-decoration="none" x="496.1181640625" y="78">BIGINT</text></g></g><g transform="translate(-46,-30) scale(1,1)"><g><path fill="none" stroke="none"/><text fill="#000000" stroke="none" font-family="Arial" font-size="13px" font-style="normal" font-weight="normal" text-decoration="none" x="349" y="74"></text></g></g><g transform="translate(-46,-30) scale(1,1)"><g><path fill="none" stroke="none"/><text fill="#000000" stroke="none" font-family="Arial" font-size="13px" font-style="normal" font-weight="normal" text-decoration="none" x="349" y="83"></text></g></g><g transform="translate(-46,-30) scale(1,1)"><g><path fill="none" stroke="none"/><text fill="#000000" stroke="none" font-family="Arial" font-size="13px" font-style="normal" font-weight="normal" text-decoration="none" x="377.05908203125" y="93">PUBLIC_PLACE</text></g></g><g transform="translate(-46,-30) scale(1,1)"><g><path fill="none" stroke="none"/><text fill="#000000" stroke="none" font-family="Arial" font-size="13px" font-style="normal" font-weight="normal" text-decoration="none" x="496.1181640625" y="93">VARCHAR(128)</text></g></g><g transform="translate(-46,-30) scale(1,1)"><g><path fill="none" stroke="none"/><text fill="#000000" stroke="none" font-family="Arial" font-size="13px" font-style="normal" font-weight="normal" text-decoration="none" x="349" y="89"></text></g></g><g transform="translate(-46,-30) scale(1,1)"><g><path fill="none" stroke="none"/><text fill="#000000" stroke="none" font-family="Arial" font-size="13px" font-style="normal" font-weight="normal" text-decoration="none" x="349" y="98"></text></g></g><g transform="translate(-46,-30) scale(1,1)"><g><path fill="none" stroke="none"/><text fill="#000000" stroke="none" font-family="Arial" font-size="13px" font-style="normal" font-weight="normal" text-decoration="none" x="377.05908203125" y="108">NUMBER</text></g></g><g transform="translate(-46,-30) scale(1,1)"><g><path fill="none" stroke="none"/><text fill="#000000" stroke="none" font-family="Arial" font-size="13px" font-style="normal" font-weight="normal" text-decoration="none" x="496.1181640625" y="108">INTEGER(6)</text></g></g><g transform="translate(-46,-30) scale(1,1)"><g><path fill="none" stroke="none"/><text fill="#000000" stroke="none" font-family="Arial" font-size="13px" font-style="normal" font-weight="normal" text-decoration="none" x="349" y="104"></text></g></g><g transform="translate(-46,-30) scale(1,1)"><g><path fill="none" stroke="none"/><text fill="#000000" stroke="none" font-family="Arial" font-size="13px" font-style="normal" font-weight="normal" text-decoration="none" x="349" y="113"></text></g></g><g transform="translate(-46,-30) scale(1,1)"><g><path fill="none" stroke="none"/><text fill="#000000" stroke="none" font-family="Arial" font-size="13px" font-style="normal" font-weight="normal" text-decoration="none" x="377.05908203125" y="123">COMPLEMENT</text></g></g><g transform="translate(-46,-30) scale(1,1)"><g><path fill="none" stroke="none"/><text fill="#000000" stroke="none" font-family="Arial" font-size="13px" font-style="normal" font-weight="normal" text-decoration="none" x="496.1181640625" y="123">VARCHAR(32)</text></g></g><g transform="translate(-46,-30) scale(1,1)"><g><path fill="none" stroke="none"/><text fill="#000000" stroke="none" font-family="Arial" font-size="13px" font-style="normal" font-weight="normal" text-decoration="none" x="349" y="119"></text></g></g><g transform="translate(-46,-30) scale(1,1)"><g><path fill="none" stroke="none"/><text fill="#000000" stroke="none" font-family="Arial" font-size="13px" font-style="normal" font-weight="normal" text-decoration="none" x="349" y="128"></text></g></g><g transform="translate(-46,-30) scale(1,1)"><g><path fill="none" stroke="none"/><text fill="#000000" stroke="none" font-family="Arial" font-size="13px" font-style="normal" font-weight="normal" text-decoration="none" x="377.05908203125" y="138">NEIGHBORHOOD</text></g></g><g transform="translate(-46,-30) scale(1,1)"><g><path fill="none" stroke="none"/><text fill="#000000" stroke="none" font-family="Arial" font-size="13px" font-style="normal" font-weight="normal" text-decoration="none" x="496.1181640625" y="138">VARCHAR(128)</text></g></g><g transform="translate(-46,-30) scale(1,1)"><g><path fill="none" stroke="none"/><text fill="#000000" stroke="none" font-family="Arial" font-size="13px" font-style="normal" font-weight="normal" text-decoration="none" x="349" y="134"></text></g></g><g transform="translate(-46,-30) scale(1,1)"><g><path fill="none" stroke="none"/><text fill="#000000" stroke="none" font-family="Arial" font-size="13px" font-style="normal" font-weight="normal" text-decoration="none" x="349" y="143"></text></g></g><g transform="translate(-46,-30) scale(1,1)"><g><path fill="none" stroke="none"/><text fill="#000000" stroke="none" font-family="Arial" font-size="13px" font-style="normal" font-weight="normal" text-decoration="none" x="377.05908203125" y="153">CITY</text></g></g><g transform="translate(-46,-30) scale(1,1)"><g><path fill="none" stroke="none"/><text fill="#000000" stroke="none" font-family="Arial" font-size="13px" font-style="normal" font-weight="normal" text-decoration="none" x="496.1181640625" y="153">VARCHAR(32)</text></g></g><g transform="translate(-46,-30) scale(1,1)"><g><path fill="none" stroke="none"/><text fill="#000000" stroke="none" font-family="Arial" font-size="13px" font-style="normal" font-weight="normal" text-decoration="none" x="349" y="149"></text></g></g><g transform="translate(-46,-30) scale(1,1)"><g><path fill="none" stroke="none"/><text fill="#000000" stroke="none" font-family="Arial" font-size="13px" font-style="normal" font-weight="normal" text-decoration="none" x="349" y="158"></text></g></g><g transform="translate(-46,-30) scale(1,1)"><g><path fill="none" stroke="none"/><text fill="#000000" stroke="none" font-family="Arial" font-size="13px" font-style="normal" font-weight="normal" text-decoration="none" x="377.05908203125" y="168">STATE</text></g></g><g transform="translate(-46,-30) scale(1,1)"><g><path fill="none" stroke="none"/><text fill="#000000" stroke="none" font-family="Arial" font-size="13px" font-style="normal" font-weight="normal" text-decoration="none" x="496.1181640625" y="168">VARCHAR(2)</text></g></g><g transform="translate(-46,-30) scale(1,1)"><g><path fill="none" stroke="none"/><text fill="#000000" stroke="none" font-family="Arial" font-size="13px" font-style="normal" font-weight="normal" text-decoration="none" x="349" y="164"></text></g></g><g transform="translate(-46,-30) scale(1,1)"><g><path fill="none" stroke="none"/><text fill="#000000" stroke="none" font-family="Arial" font-size="13px" font-style="normal" font-weight="normal" text-decoration="none" x="349" y="173"></text></g></g><g transform="translate(-46,-30) scale(1,1)"><g><path fill="none" stroke="none"/><text fill="#000000" stroke="none" font-family="Arial" font-size="13px" font-style="normal" font-weight="normal" text-decoration="none" x="377.05908203125" y="183">ZIP_CODE</text></g></g><g transform="translate(-46,-30) scale(1,1)"><g><path fill="none" stroke="none"/><text fill="#000000" stroke="none" font-family="Arial" font-size="13px" font-style="normal" font-weight="normal" text-decoration="none" x="496.1181640625" y="183">VARCHAR(14)</text></g></g><g transform="translate(-46,-30) scale(1,1)"><g><path fill="none" stroke="none"/><text fill="#000000" stroke="none" font-family="Arial" font-size="13px" font-style="normal" font-weight="normal" text-decoration="none" x="349" y="179"></text></g></g><g transform="translate(-46,-30) scale(1,1)"><g><path fill="none" stroke="none"/><text fill="#000000" stroke="none" font-family="Arial" font-size="13px" font-style="normal" font-weight="normal" text-decoration="none" x="349" y="198">FK</text></g></g><g transform="translate(-46,-30) scale(1,1)"><g><path fill="none" stroke="none"/><text fill="#000000" stroke="none" font-family="Arial" font-size="13px" font-style="normal" font-weight="normal" text-decoration="none" x="377.05908203125" y="198">CUSTOMER_ID</text></g></g><g transform="translate(-46,-30) scale(1,1)"><g><path fill="none" stroke="none"/><text fill="#000000" stroke="none" font-family="Arial" font-size="13px" font-style="normal" font-weight="normal" text-decoration="none" x="496.1181640625" y="198">BIGINT</text></g></g><g transform="translate(-46,-30) scale(1,1)"><g><path fill="none" stroke="none"/><text fill="#000000" stroke="none" font-family="Arial" font-size="13px" font-style="normal" font-weight="normal" text-decoration="none" x="349" y="194"></text></g></g><g transform="translate(-46,-30) scale(1,1)"><rect fill="#C0C0C0" stroke="none" x="63" y="55" width="228.595703125" height="90" opacity="0.2"/></g><g transform="translate(-46,-30) scale(1,1)"><rect fill="#ffffff" stroke="none" x="56" y="48" width="228.595703125" height="90"/></g><g transform="translate(-46,-30) scale(1,1)"><path fill="none" stroke="#000000" d="M 56 48 L 284.595703125 48 L 284.595703125 138 L 56 138 L 56 48 Z Z" stroke-miterlimit="10"/></g><g transform="translate(-46,-30) scale(1,1)"><path fill="none" stroke="#000000" d="M 56 71 L 284.595703125 71" stroke-miterlimit="10"/></g><g transform="translate(-46,-30) scale(1,1)"><path fill="none" stroke="#000000" d="M 84.05908203125 71 L 84.05908203125 138" stroke-miterlimit="10"/></g><g transform="translate(-46,-30) scale(1,1)"><path fill="none" stroke="#000000" d="M 188.4423828125 71 L 188.4423828125 138" stroke-miterlimit="10"/></g><g transform="translate(-46,-30) scale(1,1)"><g><path fill="none" stroke="none"/><text fill="#000000" stroke="none" font-family="Arial" font-size="13px" font-style="normal" font-weight="bold" text-decoration="none" x="118.421630859375" y="64">TBL_CONTACTS</text></g></g><g transform="translate(-46,-30) scale(1,1)"><g><path fill="none" stroke="none"/><text fill="#000000" stroke="none" font-family="Arial" font-size="13px" font-style="normal" font-weight="normal" text-decoration="none" x="61" y="86">PK</text></g></g><g transform="translate(-46,-30) scale(1,1)"><g><path fill="none" stroke="none"/><text fill="#000000" stroke="none" font-family="Arial" font-size="13px" font-style="normal" font-weight="normal" text-decoration="none" x="89.05908203125" y="86">ID</text></g></g><g transform="translate(-46,-30) scale(1,1)"><g><path fill="none" stroke="none"/><text fill="#000000" stroke="none" font-family="Arial" font-size="13px" font-style="normal" font-weight="normal" text-decoration="none" x="193.4423828125" y="86">BIGINT</text></g></g><g transform="translate(-46,-30) scale(1,1)"><g><path fill="none" stroke="none"/><text fill="#000000" stroke="none" font-family="Arial" font-size="13px" font-style="normal" font-weight="normal" text-decoration="none" x="61" y="82"></text></g></g><g transform="translate(-46,-30) scale(1,1)"><g><path fill="none" stroke="none"/><text fill="#000000" stroke="none" font-family="Arial" font-size="13px" font-style="normal" font-weight="normal" text-decoration="none" x="61" y="91"></text></g></g><g transform="translate(-46,-30) scale(1,1)"><g><path fill="none" stroke="none"/><text fill="#000000" stroke="none" font-family="Arial" font-size="13px" font-style="normal" font-weight="normal" text-decoration="none" x="89.05908203125" y="101">TYPE</text></g></g><g transform="translate(-46,-30) scale(1,1)"><g><path fill="none" stroke="none"/><text fill="#000000" stroke="none" font-family="Arial" font-size="13px" font-style="normal" font-weight="normal" text-decoration="none" x="193.4423828125" y="101">VARCHAR(32)</text></g></g><g transform="translate(-46,-30) scale(1,1)"><g><path fill="none" stroke="none"/><text fill="#000000" stroke="none" font-family="Arial" font-size="13px" font-style="normal" font-weight="normal" text-decoration="none" x="61" y="97"></text></g></g><g transform="translate(-46,-30) scale(1,1)"><g><path fill="none" stroke="none"/><text fill="#000000" stroke="none" font-family="Arial" font-size="13px" font-style="normal" font-weight="normal" text-decoration="none" x="61" y="116">U</text></g></g><g transform="translate(-46,-30) scale(1,1)"><g><path fill="none" stroke="none"/><text fill="#000000" stroke="none" font-family="Arial" font-size="13px" font-style="normal" font-weight="normal" text-decoration="none" x="89.05908203125" y="116">CONTACT</text></g></g><g transform="translate(-46,-30) scale(1,1)"><g><path fill="none" stroke="none"/><text fill="#000000" stroke="none" font-family="Arial" font-size="13px" font-style="normal" font-weight="normal" text-decoration="none" x="193.4423828125" y="116">VARCHAR</text></g></g><g transform="translate(-46,-30) scale(1,1)"><g><path fill="none" stroke="none"/><text fill="#000000" stroke="none" font-family="Arial" font-size="13px" font-style="normal" font-weight="normal" text-decoration="none" x="61" y="112"></text></g></g><g transform="translate(-46,-30) scale(1,1)"><g><path fill="none" stroke="none"/><text fill="#000000" stroke="none" font-family="Arial" font-size="13px" font-style="normal" font-weight="normal" text-decoration="none" x="61" y="131">FK</text></g></g><g transform="translate(-46,-30) scale(1,1)"><g><path fill="none" stroke="none"/><text fill="#000000" stroke="none" font-family="Arial" font-size="13px" font-style="normal" font-weight="normal" text-decoration="none" x="89.05908203125" y="131">CUSTOMER_ID</text></g></g><g transform="translate(-46,-30) scale(1,1)"><g><path fill="none" stroke="none"/><text fill="#000000" stroke="none" font-family="Arial" font-size="13px" font-style="normal" font-weight="normal" text-decoration="none" x="193.4423828125" y="131">BIGINT</text></g></g><g transform="translate(-46,-30) scale(1,1)"><g><path fill="none" stroke="none"/><text fill="#000000" stroke="none" font-family="Arial" font-size="13px" font-style="normal" font-weight="normal" text-decoration="none" x="61" y="127"></text></g></g><g transform="translate(-46,-30) scale(1,1)"><rect fill="#C0C0C0" stroke="none" x="423" y="415" width="232.93115234375" height="105" opacity="0.2"/></g><g transform="translate(-46,-30) scale(1,1)"><rect fill="#ffffff" stroke="none" x="416" y="408" width="232.93115234375" height="105"/></g><g transform="translate(-46,-30) scale(1,1)"><path fill="none" stroke="#000000" d="M 416 408 L 648.93115234375 408 L 648.93115234375 513 L 416 513 L 416 408 Z Z" stroke-miterlimit="10"/></g><g transform="translate(-46,-30) scale(1,1)"><path fill="none" stroke="#000000" d="M 416 431 L 648.93115234375 431" stroke-miterlimit="10"/></g><g transform="translate(-46,-30) scale(1,1)"><path fill="none" stroke="#000000" d="M 444.05908203125 431 L 444.05908203125 513" stroke-miterlimit="10"/></g><g transform="translate(-46,-30) scale(1,1)"><path fill="none" stroke="#000000" d="M 545.5478515625 431 L 545.5478515625 513" stroke-miterlimit="10"/></g><g transform="translate(-46,-30) scale(1,1)"><g><path fill="none" stroke="none"/><text fill="#000000" stroke="none" font-family="Arial" font-size="13px" font-style="normal" font-weight="bold" text-decoration="none" x="488.0478515625" y="424">TBL_AGENDA</text></g></g><g transform="translate(-46,-30) scale(1,1)"><g><path fill="none" stroke="none"/><text fill="#000000" stroke="none" font-family="Arial" font-size="13px" font-style="normal" font-weight="normal" text-decoration="none" x="421" y="446">PK</text></g></g><g transform="translate(-46,-30) scale(1,1)"><g><path fill="none" stroke="none"/><text fill="#000000" stroke="none" font-family="Arial" font-size="13px" font-style="normal" font-weight="normal" text-decoration="none" x="449.05908203125" y="446">ID</text></g></g><g transform="translate(-46,-30) scale(1,1)"><g><path fill="none" stroke="none"/><text fill="#000000" stroke="none" font-family="Arial" font-size="13px" font-style="normal" font-weight="normal" text-decoration="none" x="550.5478515625" y="446">BIGINT</text></g></g><g transform="translate(-46,-30) scale(1,1)"><g><path fill="none" stroke="none"/><text fill="#000000" stroke="none" font-family="Arial" font-size="13px" font-style="normal" font-weight="normal" text-decoration="none" x="421" y="442"></text></g></g><g transform="translate(-46,-30) scale(1,1)"><g><path fill="none" stroke="none"/><text fill="#000000" stroke="none" font-family="Arial" font-size="13px" font-style="normal" font-weight="normal" text-decoration="none" x="421" y="451"></text></g></g><g transform="translate(-46,-30) scale(1,1)"><g><path fill="none" stroke="none"/><text fill="#000000" stroke="none" font-family="Arial" font-size="13px" font-style="normal" font-weight="normal" text-decoration="none" x="449.05908203125" y="461">TITLE</text></g></g><g transform="translate(-46,-30) scale(1,1)"><g><path fill="none" stroke="none"/><text fill="#000000" stroke="none" font-family="Arial" font-size="13px" font-style="normal" font-weight="normal" text-decoration="none" x="550.5478515625" y="461">VARCHAR(128)</text></g></g><g transform="translate(-46,-30) scale(1,1)"><g><path fill="none" stroke="none"/><text fill="#000000" stroke="none" font-family="Arial" font-size="13px" font-style="normal" font-weight="normal" text-decoration="none" x="421" y="457"></text></g></g><g transform="translate(-46,-30) scale(1,1)"><g><path fill="none" stroke="none"/><text fill="#000000" stroke="none" font-family="Arial" font-size="13px" font-style="normal" font-weight="normal" text-decoration="none" x="421" y="466"></text></g></g><g transform="translate(-46,-30) scale(1,1)"><g><path fill="none" stroke="none"/><text fill="#000000" stroke="none" font-family="Arial" font-size="13px" font-style="normal" font-weight="normal" text-decoration="none" x="449.05908203125" y="476">DESCRIPTION</text></g></g><g transform="translate(-46,-30) scale(1,1)"><g><path fill="none" stroke="none"/><text fill="#000000" stroke="none" font-family="Arial" font-size="13px" font-style="normal" font-weight="normal" text-decoration="none" x="550.5478515625" y="476">VARCHAR(255)</text></g></g><g transform="translate(-46,-30) scale(1,1)"><g><path fill="none" stroke="none"/><text fill="#000000" stroke="none" font-family="Arial" font-size="13px" font-style="normal" font-weight="normal" text-decoration="none" x="421" y="472"></text></g></g><g transform="translate(-46,-30) scale(1,1)"><g><path fill="none" stroke="none"/><text fill="#000000" stroke="none" font-family="Arial" font-size="13px" font-style="normal" font-weight="normal" text-decoration="none" x="421" y="481"></text></g></g><g transform="translate(-46,-30) scale(1,1)"><g><path fill="none" stroke="none"/><text fill="#000000" stroke="none" font-family="Arial" font-size="13px" font-style="normal" font-weight="normal" text-decoration="none" x="449.05908203125" y="491">MARCKED_TO</text></g></g><g transform="translate(-46,-30) scale(1,1)"><g><path fill="none" stroke="none"/><text fill="#000000" stroke="none" font-family="Arial" font-size="13px" font-style="normal" font-weight="normal" text-decoration="none" x="550.5478515625" y="491">DATE</text></g></g><g transform="translate(-46,-30) scale(1,1)"><g><path fill="none" stroke="none"/><text fill="#000000" stroke="none" font-family="Arial" font-size="13px" font-style="normal" font-weight="normal" text-decoration="none" x="421" y="487"></text></g></g><g transform="translate(-46,-30) scale(1,1)"><g><path fill="none" stroke="none"/><text fill="#000000" stroke="none" font-family="Arial" font-size="13px" font-style="normal" font-weight="normal" text-decoration="none" x="421" y="496"></text></g></g><g transform="translate(-46,-30) scale(1,1)"><g><path fill="none" stroke="none"/><text fill="#000000" stroke="none" font-family="Arial" font-size="13px" font-style="normal" font-weight="normal" text-decoration="none" x="449.05908203125" y="506">CONCLUDED</text></g></g><g transform="translate(-46,-30) scale(1,1)"><g><path fill="none" stroke="none"/><text fill="#000000" stroke="none" font-family="Arial" font-size="13px" font-style="normal" font-weight="normal" text-decoration="none" x="550.5478515625" y="506">BOOLEAN</text></g></g><g transform="translate(-46,-30) scale(1,1)"><g><path fill="none" stroke="none"/><text fill="#000000" stroke="none" font-family="Arial" font-size="13px" font-style="normal" font-weight="normal" text-decoration="none" x="421" y="502"></text></g></g><g transform="translate(-46,-30) scale(1,1)"><rect fill="#C0C0C0" stroke="none" x="87" y="439" width="187.8896484375" height="60" opacity="0.2"/></g><g transform="translate(-46,-30) scale(1,1)"><rect fill="#ffffff" stroke="none" x="80" y="432" width="187.8896484375" height="60"/></g><g transform="translate(-46,-30) scale(1,1)"><path fill="none" stroke="#000000" d="M 80 432 L 267.8896484375 432 L 267.8896484375 492 L 80 492 L 80 432 Z Z" stroke-miterlimit="10"/></g><g transform="translate(-46,-30) scale(1,1)"><path fill="none" stroke="#000000" d="M 80 455 L 267.8896484375 455" stroke-miterlimit="10"/></g><g transform="translate(-46,-30) scale(1,1)"><path fill="none" stroke="#000000" d="M 107.3291015625 455 L 107.3291015625 492" stroke-miterlimit="10"/></g><g transform="translate(-46,-30) scale(1,1)"><path fill="none" stroke="#000000" d="M 211.71240234375 455 L 211.71240234375 492" stroke-miterlimit="10"/></g><g transform="translate(-46,-30) scale(1,1)"><g><path fill="none" stroke="none"/><text fill="#000000" stroke="none" font-family="Arial" font-size="13px" font-style="normal" font-weight="bold" text-decoration="none" x="84.5" y="448">TBL_AGENDA_CUSTOMERS</text></g></g><g transform="translate(-46,-30) scale(1,1)"><g><path fill="none" stroke="none"/><text fill="#000000" stroke="none" font-family="Arial" font-size="13px" font-style="normal" font-weight="normal" text-decoration="none" x="85" y="470">FK</text></g></g><g transform="translate(-46,-30) scale(1,1)"><g><path fill="none" stroke="none"/><text fill="#000000" stroke="none" font-family="Arial" font-size="13px" font-style="normal" font-weight="normal" text-decoration="none" x="112.3291015625" y="470">CUSTOMER_ID</text></g></g><g transform="translate(-46,-30) scale(1,1)"><g><path fill="none" stroke="none"/><text fill="#000000" stroke="none" font-family="Arial" font-size="13px" font-style="normal" font-weight="normal" text-decoration="none" x="216.71240234375" y="470">BIGINT</text></g></g><g transform="translate(-46,-30) scale(1,1)"><g><path fill="none" stroke="none"/><text fill="#000000" stroke="none" font-family="Arial" font-size="13px" font-style="normal" font-weight="normal" text-decoration="none" x="85" y="466"></text></g></g><g transform="translate(-46,-30) scale(1,1)"><g><path fill="none" stroke="none"/><text fill="#000000" stroke="none" font-family="Arial" font-size="13px" font-style="normal" font-weight="normal" text-decoration="none" x="85" y="485">FK</text></g></g><g transform="translate(-46,-30) scale(1,1)"><g><path fill="none" stroke="none"/><text fill="#000000" stroke="none" font-family="Arial" font-size="13px" font-style="normal" font-weight="normal" text-decoration="none" x="112.3291015625" y="485">AGENDA_ID</text></g></g><g transform="translate(-46,-30) scale(1,1)"><g><path fill="none" stroke="none"/><text fill="#000000" stroke="none" font-family="Arial" font-size="13px" font-style="normal" font-weight="normal" text-decoration="none" x="216.71240234375" y="485">BIGINT</text></g></g><g transform="translate(-46,-30) scale(1,1)"><g><path fill="none" stroke="none"/><text fill="#000000" stroke="none" font-family="Arial" font-size="13px" font-style="normal" font-weight="normal" text-decoration="none" x="85" y="481"></text></g></g><g transform="translate(-46,-30) scale(1,1)"><path fill="none" stroke="#000000" d="M 292 296 L 448 296 M 448 296 A 8 8 0 0 0 456 288 L 456 205" stroke-miterlimit="10"/></g><g transform="translate(-46,-30) scale(1,1)"><path fill="none" stroke="#000000" d="M 463 212 L 449 212" stroke-miterlimit="10"/></g><g transform="translate(-46,-30) scale(1,1)"><path fill="none" stroke="#000000" d="M 463 219 L 449 219" stroke-miterlimit="10"/></g><g transform="translate(-46,-30) scale(1,1)"><path fill="none" stroke="#000000" d="M 299 289 L 299 303" stroke-miterlimit="10"/></g><g transform="translate(-46,-30) scale(1,1)"><path fill="none" stroke="#000000" d="M 306 289 L 306 303" stroke-miterlimit="10"/></g><g transform="translate(-46,-30) scale(1,1)"><g><path fill="none" stroke="none"/><text fill="#000000" stroke="none" font-family="Arial" font-size="13px" font-style="normal" font-weight="normal" text-decoration="none" x="316.5" y="281"></text></g></g><g transform="translate(-46,-30) scale(1,1)"><g><path fill="none" stroke="none"/><text fill="#000000" stroke="none" font-family="Arial" font-size="13px" font-style="normal" font-weight="normal" text-decoration="none" x="440.5" y="230"></text></g></g><g transform="translate(-46,-30) scale(1,1)"><path fill="none" stroke="#000000" d="M 176 138 L 176 240" stroke-miterlimit="10"/></g><g transform="translate(-46,-30) scale(1,1)"><path fill="none" stroke="#000000" d="M 176 226 L 169 240" stroke-miterlimit="10"/></g><g transform="translate(-46,-30) scale(1,1)"><path fill="none" stroke="#000000" d="M 176 226 L 183 240" stroke-miterlimit="10"/></g><g transform="translate(-46,-30) scale(1,1)"><path fill="#FFFFFF" stroke="none" d="M 169 218 C 169 214.1340064 172.1340064 211 176 211 C 179.8659936 211 183 214.1340064 183 218 C 183 221.8659936 179.8659936 225 176 225 C 172.1340064 225 169 221.8659936 169 218 Z"/></g><g transform="translate(-46,-30) scale(1,1)"><path fill="none" stroke="#000000" d="M 169 218 C 169 214.1340064 172.1340064 211 176 211 C 179.8659936 211 183 214.1340064 183 218 C 183 221.8659936 179.8659936 225 176 225 C 172.1340064 225 169 221.8659936 169 218 Z" stroke-miterlimit="10"/></g><g transform="translate(-46,-30) scale(1,1)"><path fill="none" stroke="#000000" d="M 183 145 L 169 145" stroke-miterlimit="10"/></g><g transform="translate(-46,-30) scale(1,1)"><path fill="none" stroke="#000000" d="M 183 152 L 169 152" stroke-miterlimit="10"/></g><g transform="translate(-46,-30) scale(1,1)"><g><path fill="none" stroke="none"/><text fill="#000000" stroke="none" font-family="Arial" font-size="13px" font-style="normal" font-weight="normal" text-decoration="none" x="190.5" y="163"></text></g></g><g transform="translate(-46,-30) scale(1,1)"><g><path fill="none" stroke="none"/><text fill="#000000" stroke="none" font-family="Arial" font-size="13px" font-style="normal" font-weight="normal" text-decoration="none" x="190.5" y="214"></text></g></g><g transform="translate(-46,-30) scale(1,1)"><path fill="none" stroke="#000000" d="M 175 432 L 175 345" stroke-miterlimit="10"/></g><g transform="translate(-46,-30) scale(1,1)"><path fill="none" stroke="#000000" d="M 175 359 L 182 345" stroke-miterlimit="10"/></g><g transform="translate(-46,-30) scale(1,1)"><path fill="none" stroke="#000000" d="M 175 359 L 168 345" stroke-miterlimit="10"/></g><g transform="translate(-46,-30) scale(1,1)"><path fill="#FFFFFF" stroke="none" d="M 168 367 C 168 363.1340064 171.1340064 360 175 360 C 178.8659936 360 182 363.1340064 182 367 C 182 370.8659936 178.8659936 374 175 374 C 171.1340064 374 168 370.8659936 168 367 Z"/></g><g transform="translate(-46,-30) scale(1,1)"><path fill="none" stroke="#000000" d="M 168 367 C 168 363.1340064 171.1340064 360 175 360 C 178.8659936 360 182 363.1340064 182 367 C 182 370.8659936 178.8659936 374 175 374 C 171.1340064 374 168 370.8659936 168 367 Z" stroke-miterlimit="10"/></g><g transform="translate(-46,-30) scale(1,1)"><path fill="none" stroke="#000000" d="M 168 425 L 182 425" stroke-miterlimit="10"/></g><g transform="translate(-46,-30) scale(1,1)"><path fill="none" stroke="#000000" d="M 168 418 L 182 418" stroke-miterlimit="10"/></g><g transform="translate(-46,-30) scale(1,1)"><g><path fill="none" stroke="none"/><text fill="#000000" stroke="none" font-family="Arial" font-size="13px" font-style="normal" font-weight="normal" text-decoration="none" x="159.5" y="406"></text></g></g><g transform="translate(-46,-30) scale(1,1)"><g><path fill="none" stroke="none"/><text fill="#000000" stroke="none" font-family="Arial" font-size="13px" font-style="normal" font-weight="normal" text-decoration="none" x="159.5" y="370"></text></g></g><g transform="translate(-46,-30) scale(1,1)"><path fill="none" stroke="#000000" d="M 268 464 L 416 464" stroke-miterlimit="10"/></g><g transform="translate(-46,-30) scale(1,1)"><path fill="none" stroke="#000000" d="M 402 464 L 416 471" stroke-miterlimit="10"/></g><g transform="translate(-46,-30) scale(1,1)"><path fill="none" stroke="#000000" d="M 402 464 L 416 457" stroke-miterlimit="10"/></g><g transform="translate(-46,-30) scale(1,1)"><path fill="#FFFFFF" stroke="none" d="M 387 464 C 387 460.1340064 390.1340064 457 394 457 C 397.8659936 457 401 460.1340064 401 464 C 401 467.8659936 397.8659936 471 394 471 C 390.1340064 471 387 467.8659936 387 464 Z"/></g><g transform="translate(-46,-30) scale(1,1)"><path fill="none" stroke="#000000" d="M 387 464 C 387 460.1340064 390.1340064 457 394 457 C 397.8659936 457 401 460.1340064 401 464 C 401 467.8659936 397.8659936 471 394 471 C 390.1340064 471 387 467.8659936 387 464 Z" stroke-miterlimit="10"/></g><g transform="translate(-46,-30) scale(1,1)"><path fill="none" stroke="#000000" d="M 275 457 L 275 471" stroke-miterlimit="10"/></g><g transform="translate(-46,-30) scale(1,1)"><path fill="none" stroke="#000000" d="M 282 457 L 282 471" stroke-miterlimit="10"/></g><g transform="translate(-46,-30) scale(1,1)"><g><path fill="none" stroke="none"/><text fill="#000000" stroke="none" font-family="Arial" font-size="13px" font-style="normal" font-weight="normal" text-decoration="none" x="292.5" y="449"></text></g></g><g transform="translate(-46,-30) scale(1,1)"><g><path fill="none" stroke="none"/><text fill="#000000" stroke="none" font-family="Arial" font-size="13px" font-style="normal" font-weight="normal" text-decoration="none" x="389.5" y="449"></text></g></g></g></svg>